<svg width="90" height="101" viewBox="0 0 90 101" fill="none" xmlns="http://www.w3.org/2000/svg">
<path d="M84.3588 5.29395H5.46774C3.56048 5.29395 2 6.85443 2 8.76169V94.935H13.9637V88.8665C13.9637 86.9592 15.5242 85.3987 17.4314 85.3987H72.5685C74.4758 85.3987 76.0362 86.9592 76.0362 88.8665V94.935H88V8.76169C87.8266 6.85443 86.2661 5.29395 84.3588 5.29395Z" fill="white" stroke="#FF0050" stroke-width="4" stroke-miterlimit="10"/>
<path d="M15.3508 17.6045H74.6492C75.5161 17.6045 76.0363 18.298 76.0363 18.9916V71.1811C76.0363 72.048 75.3427 72.5682 74.6492 72.5682H15.3508C14.4839 72.5682 13.9637 71.8746 13.9637 71.1811V18.9916C13.7903 18.1246 14.4839 17.6045 15.3508 17.6045Z" fill="white" stroke="#FF0050" stroke-width="4" stroke-miterlimit="10" stroke-linecap="round" stroke-linejoin="round"/>
<path d="M45 58.5236C52.0862 58.5236 57.8307 52.7791 57.8307 45.6929C57.8307 38.6068 52.0862 32.8623 45 32.8623C37.9139 32.8623 32.1694 38.6068 32.1694 45.6929C32.1694 52.7791 37.9139 58.5236 45 58.5236Z" fill="white" stroke="#FF0050" stroke-width="4" stroke-miterlimit="10" stroke-linecap="round" stroke-linejoin="round"/>
<path d="M44.9999 52.1087C48.543 52.1087 51.4153 49.2365 51.4153 45.6934C51.4153 42.1503 48.543 39.2781 44.9999 39.2781C41.4568 39.2781 38.5846 42.1503 38.5846 45.6934C38.5846 49.2365 41.4568 52.1087 44.9999 52.1087Z" fill="white" stroke="#FF0050" stroke-width="4" stroke-miterlimit="10" stroke-linecap="round" stroke-linejoin="round"/>
<path d="M45 33.0359V39.1044" stroke="#FF0050" stroke-width="4" stroke-miterlimit="10" stroke-linecap="round" stroke-linejoin="round"/>
<path d="M76.2097 17.2578H14.1371C12.2298 17.2578 10.6693 18.8183 10.6693 20.7256V94.9352C10.6693 96.8425 12.2298 98.403 14.1371 98.403H64.5927H76.2097C78.1169 98.403 79.6774 96.8425 79.6774 94.9352V83.3183V20.7256C79.6774 18.8183 78.1169 17.2578 76.2097 17.2578Z" fill="white" stroke="#FF0050" stroke-width="4" stroke-miterlimit="10" stroke-linecap="round" stroke-linejoin="round"/>
<path d="M53.1491 45.6931C48.9879 45.6931 45.5201 48.9875 45.1733 52.9754C44.8266 48.6407 41.0121 45.173 36.3306 45.6931C31.8226 46.0399 28.7016 50.3746 29.0484 54.8827C29.3951 58.8706 31.4758 62.3383 35.8104 66.3262C39.2782 69.6206 44.6532 73.7819 45 74.1287C45.3468 73.7819 51.4153 69.1004 54.3629 66.3262C58.3508 62.6851 60.6048 59.2174 61.125 55.5762C61.8185 50.548 58.3508 45.6931 53.1491 45.6931Z" fill="white" stroke="#FF0050" stroke-width="4" stroke-miterlimit="10" stroke-linecap="round" stroke-linejoin="round"/>
<path d="M51.762 11.5363V8.41529C51.762 4.94755 48.9878 2 45.3467 2C41.879 2 38.9314 4.77416 38.9314 8.41529V11.5363H25.5806V24.1935H65.1128V11.5363H51.762Z" fill="white" stroke="#FF0050" stroke-width="4" stroke-miterlimit="10" stroke-linecap="round" stroke-linejoin="round"/>
</svg>
