<svg width="53" height="59" viewBox="0 0 53 59" fill="none" xmlns="http://www.w3.org/2000/svg">
<path d="M49.5 3.8999H4C2.9 3.8999 2 4.7999 2 5.8999V55.5999H8.89999V52.0999C8.89999 50.9999 9.79999 50.0999 10.9 50.0999H42.7C43.8 50.0999 44.7 50.9999 44.7 52.0999V55.5999H51.6V5.8999C51.5 4.7999 50.6 3.8999 49.5 3.8999Z" fill="white" stroke="#FF0050" stroke-width="2.592" stroke-miterlimit="10"/>
<path d="M9.7 11H43.9C44.4 11 44.7 11.4 44.7 11.8V41.9C44.7 42.4 44.3 42.7 43.9 42.7H9.7C9.2 42.7 8.90001 42.3 8.90001 41.9V11.8C8.80001 11.3 9.2 11 9.7 11Z" fill="white" stroke="#FF0050" stroke-width="1.5552" stroke-miterlimit="10" stroke-linecap="round" stroke-linejoin="round"/>
<path d="M26.8 34.5998C30.8869 34.5998 34.2 31.2867 34.2 27.1998C34.2 23.1129 30.8869 19.7998 26.8 19.7998C22.7131 19.7998 19.4 23.1129 19.4 27.1998C19.4 31.2867 22.7131 34.5998 26.8 34.5998Z" fill="white" stroke="#FF0050" stroke-width="1.5552" stroke-miterlimit="10" stroke-linecap="round" stroke-linejoin="round"/>
<path d="M26.8 30.9C28.8434 30.9 30.5 29.2434 30.5 27.2C30.5 25.1565 28.8434 23.5 26.8 23.5C24.7565 23.5 23.1 25.1565 23.1 27.2C23.1 29.2434 24.7565 30.9 26.8 30.9Z" fill="white" stroke="#FF0050" stroke-width="1.5552" stroke-miterlimit="10" stroke-linecap="round" stroke-linejoin="round"/>
<path d="M26.8 19.8999V23.3999" stroke="#FF0050" stroke-width="1.5552" stroke-miterlimit="10" stroke-linecap="round" stroke-linejoin="round"/>
<path d="M44.8 10.8H9C7.9 10.8 7 11.7 7 12.8V55.6001C7 56.7001 7.9 57.6001 9 57.6001H38.1H44.8C45.9 57.6001 46.8 56.7001 46.8 55.6001V48.9001V12.8C46.8 11.7 45.9 10.8 44.8 10.8Z" fill="white" stroke="#FF0050" stroke-width="2.592" stroke-miterlimit="10" stroke-linecap="round" stroke-linejoin="round"/>
<path d="M31.5 27.2C29.1 27.2 27.1 29.1 26.9 31.4C26.7 28.9 24.5 26.9 21.8 27.2C19.2 27.4 17.4 29.9001 17.6 32.5001C17.8 34.8001 19 36.8001 21.5 39.1001C23.5 41.0001 26.6 43.4001 26.8 43.6001C27 43.4001 30.5 40.7001 32.2 39.1001C34.5 37.0001 35.8 35 36.1 32.9C36.5 30 34.5 27.2 31.5 27.2Z" fill="white" stroke="#FF0050" stroke-width="2.3328" stroke-miterlimit="10" stroke-linecap="round" stroke-linejoin="round"/>
<path d="M30.7 7.5V5.69998C30.7 3.69998 29.1 2 27 2C25 2 23.3 3.59998 23.3 5.69998V7.5H15.6V14.8H38.4V7.5H30.7Z" fill="white" stroke="#FF0050" stroke-width="2.592" stroke-miterlimit="10" stroke-linecap="round" stroke-linejoin="round"/>
</svg>
