<svg width="32" height="38" viewBox="0 0 32 38" fill="none" xmlns="http://www.w3.org/2000/svg">
<path d="M30 31.9172C30 25.1574 29.125 19.5353 20.0385 18.2637C19.0288 19.6023 17.6154 20.2046 16 20.2046C14.3846 20.2046 12.9712 19.6023 11.9615 18.2637C2.94231 19.4684 2 25.0904 2 31.9172" fill="white"/>
<path d="M30 31.9172C30 25.1574 29.125 19.5353 20.0385 18.2637C19.0288 19.6023 17.6154 20.2046 16 20.2046C14.3846 20.2046 12.9712 19.6023 11.9615 18.2637C2.94231 19.4684 2 25.0904 2 31.9172" stroke="#FF0050" stroke-width="2.592" stroke-miterlimit="10" stroke-linecap="round" stroke-linejoin="round"/>
<path d="M21.5865 8.96062C21.5865 12.8425 18.8269 16.189 16.0673 16.189C13.3077 16.189 10.75 12.7756 10.5481 8.96062C10.3462 5.07873 12.6346 2 16.0673 2C19.5 2 21.5865 5.14566 21.5865 8.96062Z" fill="white"/>
<path d="M21.5865 8.96062C21.5865 12.8425 18.8269 16.189 16.0673 16.189C13.3077 16.189 10.75 12.7756 10.5481 8.96062C10.3462 5.07873 12.6346 2 16.0673 2C19.5 2 21.5865 5.14566 21.5865 8.96062Z" stroke="#FF0050" stroke-width="2.592" stroke-miterlimit="10" stroke-linecap="round" stroke-linejoin="round"/>
<path d="M7.38461 25.3584C6.4423 27.8348 6.44231 31.5828 6.44231 34.1261C8.93269 35.1301 12.3654 36.0001 16.0673 36.0001C19.8365 36.0001 23.2019 35.1301 25.6923 34.1261C25.6923 31.7836 25.6923 28.4371 25.0192 26.0946" fill="white"/>
<path d="M7.38461 25.3584C6.4423 27.8348 6.44231 31.5828 6.44231 34.1261C8.93269 35.1301 12.3654 36.0001 16.0673 36.0001C19.8365 36.0001 23.2019 35.1301 25.6923 34.1261C25.6923 31.7836 25.6923 28.4371 25.0192 26.0946" stroke="#FF0050" stroke-width="2.592" stroke-miterlimit="10" stroke-linecap="round" stroke-linejoin="round"/>
<path d="M2.06731 31.9172C2.06731 32.3857 4.08653 33.5235 6.37499 33.5235Z" fill="white"/>
<path d="M2.06731 31.9172C2.06731 32.3857 4.08653 33.5235 6.37499 33.5235" stroke="#FF0050" stroke-width="2.592" stroke-miterlimit="10" stroke-linecap="round" stroke-linejoin="round"/>
<path d="M30 31.9172C30 32.3857 27.9808 33.5235 25.6923 33.5235Z" fill="white"/>
<path d="M30 31.9172C30 32.3857 27.9808 33.5235 25.6923 33.5235" stroke="#FF0050" stroke-width="2.592" stroke-miterlimit="10" stroke-linecap="round" stroke-linejoin="round"/>
<path d="M18.1538 24.4214C17.0096 24.4214 16.0673 25.3584 16.0673 26.4962C16.0673 25.3584 15.125 24.4214 13.9808 24.4214C12.8365 24.4214 11.8942 25.3584 11.8942 26.4962C11.8942 27.634 12.4327 28.571 13.6442 29.7088C14.5865 30.5789 16 31.7167 16 31.7167C16 31.7167 17.6827 30.445 18.4231 29.7088C19.6346 28.6379 20.1731 27.634 20.1731 26.4962C20.2404 25.2915 19.2981 24.4214 18.1538 24.4214Z" fill="white" stroke="#FF0050" stroke-width="2.0736" stroke-miterlimit="10" stroke-linecap="round" stroke-linejoin="round"/>
</svg>
