<svg width="63" height="76" viewBox="0 0 63 76" fill="none" xmlns="http://www.w3.org/2000/svg">
<path d="M61 65.3532C61 51.0384 59.1562 39.1331 40.0096 36.4402C37.8822 39.2748 34.9038 40.5504 31.5 40.5504C28.0962 40.5504 25.1178 39.2748 22.9904 36.4402C3.98558 38.9913 2 50.8967 2 65.3532" fill="white"/>
<path d="M61 65.3532C61 51.0384 59.1562 39.1331 40.0096 36.4402C37.8822 39.2748 34.9038 40.5504 31.5 40.5504C28.0962 40.5504 25.1178 39.2748 22.9904 36.4402C3.98558 38.9913 2 50.8967 2 65.3532" stroke="#FF0050" stroke-width="2.592" stroke-miterlimit="10" stroke-linecap="round" stroke-linejoin="round"/>
<path d="M43.2716 16.7399C43.2716 24.9603 37.4567 32.0468 31.6418 32.0468C25.8269 32.0468 20.4375 24.8186 20.012 16.7399C19.5865 8.51959 24.4086 2 31.6418 2C38.875 2 43.2716 8.66132 43.2716 16.7399Z" fill="white"/>
<path d="M43.2716 16.7399C43.2716 24.9603 37.4567 32.0468 31.6418 32.0468C25.8269 32.0468 20.4375 24.8186 20.012 16.7399C19.5865 8.51959 24.4086 2 31.6418 2C38.875 2 43.2716 8.66132 43.2716 16.7399Z" stroke="#FF0050" stroke-width="2.592" stroke-miterlimit="10" stroke-linecap="round" stroke-linejoin="round"/>
<path d="M13.3461 51.4648C11.3605 56.7089 11.3605 64.6458 11.3605 70.0315C16.6081 72.1575 23.8413 74 31.6418 74C39.5841 74 46.6754 72.1575 51.923 70.0315C51.923 65.071 51.923 57.9844 50.5047 53.0239" fill="white"/>
<path d="M13.3461 51.4648C11.3605 56.7089 11.3605 64.6458 11.3605 70.0315C16.6081 72.1575 23.8413 74 31.6418 74C39.5841 74 46.6754 72.1575 51.923 70.0315C51.923 65.071 51.923 57.9844 50.5047 53.0239" stroke="#FF0050" stroke-width="2.592" stroke-miterlimit="10" stroke-linecap="round" stroke-linejoin="round"/>
<path d="M2.14182 65.3533C2.14182 66.3454 6.39661 68.7548 11.2187 68.7548L2.14182 65.3533Z" fill="white"/>
<path d="M2.14182 65.3533C2.14182 66.3454 6.39661 68.7548 11.2187 68.7548" stroke="#FF0050" stroke-width="2.592" stroke-miterlimit="10" stroke-linecap="round" stroke-linejoin="round"/>
<path d="M61 65.3533C61 66.3454 56.7452 68.7548 51.9231 68.7548L61 65.3533Z" fill="white"/>
<path d="M61 65.3533C61 66.3454 56.7452 68.7548 51.9231 68.7548" stroke="#FF0050" stroke-width="2.592" stroke-miterlimit="10" stroke-linecap="round" stroke-linejoin="round"/>
<path d="M36.0385 49.4795C33.6274 49.4795 31.6418 51.4637 31.6418 53.8731C31.6418 51.4637 29.6563 49.4795 27.2452 49.4795C24.8341 49.4795 22.8486 51.4637 22.8486 53.8731C22.8486 56.2826 23.9832 58.2668 26.5361 60.6762C28.5216 62.5187 31.5 64.9281 31.5 64.9281C31.5 64.9281 35.0457 62.2352 36.6058 60.6762C39.1587 58.4085 40.2933 56.2826 40.2933 53.8731C40.4351 51.322 38.4495 49.4795 36.0385 49.4795Z" fill="white" stroke="#FF0050" stroke-width="2.0736" stroke-miterlimit="10" stroke-linecap="round" stroke-linejoin="round"/>
</svg>
