<svg width="50" height="50" viewBox="0 0 50 50" fill="none" xmlns="http://www.w3.org/2000/svg">
<path fill-rule="evenodd" clip-rule="evenodd" d="M37.2642 25.3051C36.4975 25.3051 35.8287 24.7405 35.7183 23.9593C35.5996 23.103 36.1933 22.3135 37.0496 22.1947C39.2162 21.8905 40.8517 20.0114 40.8558 17.8197C40.8558 15.6468 39.2975 13.8093 37.1496 13.4572C36.2996 13.3176 35.7225 12.5135 35.8621 11.6614C36.0037 10.8093 36.8017 10.2385 37.6579 10.3739C41.3204 10.976 43.9808 14.1093 43.9808 17.8239C43.9725 21.5635 41.1787 24.7718 37.4808 25.2905C37.4079 25.301 37.335 25.3051 37.2642 25.3051Z" fill="#FF0050"/>
<mask id="mask0_273_8596" style="mask-type:luminance" maskUnits="userSpaceOnUse" x="39" y="29" width="9" height="10">
<path fill-rule="evenodd" clip-rule="evenodd" d="M39.5378 29.1699H47.4419V38.6065H39.5378V29.1699Z" fill="white"/>
</mask>
<g mask="url(#mask0_273_8596)">
<path fill-rule="evenodd" clip-rule="evenodd" d="M43.4613 38.6065C42.8321 38.6065 42.2383 38.2232 42.0008 37.6003C41.6925 36.794 42.0988 35.8899 42.905 35.5836C44.3175 35.0461 44.3175 34.4524 44.3175 34.1669C44.3175 33.2544 43.1571 32.6169 40.8696 32.2753C40.0175 32.1461 39.4279 31.3524 39.555 30.4961C39.6821 29.6419 40.4738 29.0732 41.3342 29.1836C46.3821 29.9399 47.4425 32.3107 47.4425 34.1669C47.4425 35.3003 46.9967 37.369 44.0175 38.5044C43.8342 38.5732 43.6467 38.6065 43.4613 38.6065Z" fill="#FF0050"/>
</g>
<path fill-rule="evenodd" clip-rule="evenodd" d="M24.764 33.1541C19.814 33.1541 13.9119 33.7624 13.9119 36.6582C13.9119 39.577 19.814 40.1895 24.764 40.1895C29.714 40.1895 35.614 39.5832 35.614 36.6936C35.614 33.7686 29.714 33.1541 24.764 33.1541ZM24.764 43.3145C21.3077 43.3145 10.7869 43.3145 10.7869 36.6582C10.7869 30.0291 21.3077 30.0291 24.764 30.0291C28.2202 30.0291 38.739 30.0291 38.739 36.6936C38.739 43.3145 28.5869 43.3145 24.764 43.3145Z" fill="#FF0050"/>
<path fill-rule="evenodd" clip-rule="evenodd" d="M24.764 11.4583C21.239 11.4583 18.3723 14.327 18.3723 17.852C18.366 19.5603 19.0202 21.1583 20.2181 22.3645C21.416 23.5708 23.0119 24.2395 24.7119 24.2458L24.764 25.8083V24.2458C28.289 24.2458 31.1577 21.3791 31.1577 17.852C31.1577 14.327 28.289 11.4583 24.764 11.4583ZM24.764 27.3708H24.7077C22.166 27.3624 19.7848 26.3666 18.0015 24.5666C16.214 22.7687 15.2369 20.3812 15.2473 17.8458C15.2473 12.6041 19.516 8.33325 24.764 8.33325C30.014 8.33325 34.2827 12.6041 34.2827 17.852C34.2827 23.0999 30.014 27.3708 24.764 27.3708Z" fill="#FF0050"/>
<path fill-rule="evenodd" clip-rule="evenodd" d="M12.2619 25.305C12.191 25.305 12.1181 25.3009 12.0452 25.2904C8.34729 24.7717 5.55562 21.5634 5.54729 17.8279C5.54729 14.1092 8.2077 10.9759 11.8702 10.3738C12.7473 10.2363 13.5244 10.8134 13.666 11.6613C13.8056 12.5134 13.2285 13.3175 12.3785 13.4571C10.2306 13.8092 8.67229 15.6467 8.67229 17.8238C8.67645 20.0113 10.3119 21.8925 12.4765 22.1946C13.3327 22.3134 13.9265 23.1029 13.8077 23.9592C13.6973 24.7404 13.0285 25.305 12.2619 25.305Z" fill="#FF0050"/>
<path fill-rule="evenodd" clip-rule="evenodd" d="M6.06687 38.6066C5.88146 38.6066 5.69396 38.5732 5.51063 38.5045C2.52938 37.367 2.08354 35.2982 2.08354 34.167C2.08354 32.3128 3.14396 29.9399 8.19396 29.1837C9.05438 29.0753 9.84188 29.642 9.97104 30.4962C10.0981 31.3524 9.50854 32.1462 8.65646 32.2753C6.36896 32.617 5.20854 33.2545 5.20854 34.167C5.20854 34.4524 5.20854 35.0441 6.62312 35.5837C7.42937 35.8899 7.83562 36.7941 7.52729 37.6003C7.28979 38.2232 6.69604 38.6066 6.06687 38.6066Z" fill="#FF0050"/>
</svg>
