<svg width="63" height="76" viewBox="0 0 63 76" fill="none" xmlns="http://www.w3.org/2000/svg">
<path d="M61 65.3536C61 51.0387 59.1562 39.1333 40.0096 36.4404C37.8822 39.2751 34.9038 40.5506 31.5 40.5506C28.0961 40.5506 25.1178 39.2751 22.9904 36.4404C3.98557 38.9916 2 50.897 2 65.3536" fill="white"/>
<path d="M61 65.3536C61 51.0387 59.1563 39.1333 40.0096 36.4404C37.8822 39.2751 34.9038 40.5506 31.5 40.5506C28.0962 40.5506 25.1178 39.2751 22.9904 36.4404C3.98557 38.9916 2 50.897 2 65.3536" stroke="#FF0050" stroke-width="2.592" stroke-miterlimit="10" stroke-linecap="round" stroke-linejoin="round"/>
<path d="M43.2716 16.74C43.2716 24.9605 37.4567 32.047 31.6418 32.047C25.8269 32.047 20.4375 24.8187 20.012 16.74C19.5865 8.51964 24.4086 2 31.6418 2C38.875 2 43.2716 8.51964 43.2716 16.74Z" fill="white"/>
<path d="M43.2716 16.74C43.2716 24.9605 37.4567 32.047 31.6418 32.047C25.8269 32.047 20.4375 24.8187 20.012 16.74C19.5865 8.51964 24.4086 2 31.6418 2C38.875 2 43.2716 8.51964 43.2716 16.74Z" stroke="#FF0050" stroke-width="2.592" stroke-miterlimit="10" stroke-linecap="round" stroke-linejoin="round"/>
<path d="M13.3462 51.4646C11.3606 56.7087 11.3606 64.6456 11.3606 70.0314C16.6082 72.1574 23.8414 73.9999 31.6418 73.9999C39.5841 73.9999 46.6755 72.1574 51.9231 70.0314C51.9231 65.0708 51.9231 57.9842 50.5048 53.0236" fill="white"/>
<path d="M13.3462 51.4646C11.3606 56.7087 11.3606 64.6456 11.3606 70.0314C16.6082 72.1574 23.8414 73.9999 31.6418 73.9999C39.5841 73.9999 46.6755 72.1574 51.9231 70.0314C51.9231 65.0708 51.9231 57.9842 50.5048 53.0236" stroke="#FF0050" stroke-width="2.592" stroke-miterlimit="10" stroke-linecap="round" stroke-linejoin="round"/>
<path d="M2.14185 65.3547C2.14185 66.3469 6.39666 68.7563 11.2188 68.7563L2.14185 65.3547Z" fill="white"/>
<path d="M2.14185 65.3547C2.14185 66.3469 6.39666 68.7563 11.2188 68.7563" stroke="#FF0050" stroke-width="2.592" stroke-miterlimit="10" stroke-linecap="round" stroke-linejoin="round"/>
<path d="M61 65.3547C61 66.3469 56.7452 68.7563 51.9231 68.7563L61 65.3547Z" fill="white"/>
<path d="M61 65.3547C61 66.3469 56.7452 68.7563 51.9231 68.7563" stroke="#FF0050" stroke-width="2.592" stroke-miterlimit="10" stroke-linecap="round" stroke-linejoin="round"/>
</svg>
