<svg width="96" height="83" viewBox="0 0 96 83" fill="none" xmlns="http://www.w3.org/2000/svg">
<path d="M48.1535 80L8.80014 40.3053C0.142404 31.5725 0.142404 17.2825 8.80014 8.54966C17.4579 -0.183075 31.625 -0.183183 40.2828 8.54955L48.1535 16.4885L56.0241 8.54955C64.6819 -0.183183 78.8489 -0.183183 87.5067 8.54955C96.1643 17.2824 96.1644 31.5725 87.5068 40.3053L48.1535 80Z" stroke="#FF0050" stroke-width="4" stroke-miterlimit="10" stroke-linecap="round"/>
<path d="M38.6163 28.2484C37.4183 26.3174 35.9077 25.1262 33.8933 25.1262C22.0994 25.1262 26.4183 69.3599 14.9566 69.3599C5.98666 69.3599 9.72416 47.2431 2 47.2431" stroke="#FF0050" stroke-width="4" stroke-miterlimit="10" stroke-linecap="round"/>
<path d="M41.7189 36.8194C41.5562 36.1554 41.3885 35.503 41.2141 34.8667" stroke="#FF0050" stroke-width="4" stroke-miterlimit="10" stroke-linecap="round"/>
<path d="M77.7466 40.2061H68.777C68.777 40.2061 63.6385 39.9634 60.9863 45.6507C59.4927 48.8536 57.8963 58.3017 51.8333 58.3017C47.3899 58.3017 45.3749 52.5959 43.7802 45.917" stroke="#FF0050" stroke-width="4" stroke-miterlimit="10" stroke-linecap="round"/>
<path d="M15.0568 34.0731C9.60772 28.5768 9.60772 19.6653 15.0568 14.1689" stroke="#FF0050" stroke-width="4" stroke-miterlimit="10" stroke-linecap="round"/>
</svg>
