<svg width="50" height="50" viewBox="0 0 50 50" fill="none" xmlns="http://www.w3.org/2000/svg">
<path fill-rule="evenodd" clip-rule="evenodd" d="M25 7.29175C15.2354 7.29175 7.29167 15.2355 7.29167 25.0001C7.29167 34.7647 15.2354 42.7084 25 42.7084C34.7646 42.7084 42.7083 34.7647 42.7083 25.0001C42.7083 15.2355 34.7646 7.29175 25 7.29175ZM25 45.8334C13.5125 45.8334 4.16667 36.4876 4.16667 25.0001C4.16667 13.5126 13.5125 4.16675 25 4.16675C36.4875 4.16675 45.8333 13.5126 45.8333 25.0001C45.8333 36.4876 36.4875 45.8334 25 45.8334Z" fill="#FF0050"/>
<path fill-rule="evenodd" clip-rule="evenodd" d="M32.1483 32.6926C31.8754 32.6926 31.6004 32.6218 31.3483 32.4739L23.4942 27.7885C23.0233 27.5051 22.7317 26.9947 22.7317 26.4447V16.3447C22.7317 15.4822 23.4317 14.7822 24.2942 14.7822C25.1588 14.7822 25.8567 15.4822 25.8567 16.3447V25.5572L32.9504 29.7864C33.69 30.2301 33.9338 31.1885 33.4921 31.9301C33.1983 32.4197 32.6796 32.6926 32.1483 32.6926Z" fill="#FF0050"/>
</svg>
