<svg width="23" height="25" viewBox="0 0 23 25" fill="none" xmlns="http://www.w3.org/2000/svg">
<g clip-path="url(#clip0_90_4231)">
<path d="M0 19.1462C0 19.5896 0.162516 19.9444 0.487547 20.2105C0.812579 20.4766 1.26356 20.6096 1.84049 20.6096H6.98411C7.01662 21.3918 7.22992 22.1134 7.62402 22.7746C8.01812 23.4358 8.54833 23.97 9.21464 24.3772C9.88095 24.7844 10.6407 24.988 11.4939 24.988C12.3552 24.988 13.119 24.7864 13.7854 24.3832C14.4517 23.98 14.9819 23.4459 15.376 22.7807C15.7701 22.1155 15.9834 21.3918 16.0159 20.6096H21.1595C21.7365 20.6096 22.1875 20.4766 22.5125 20.2105C22.8375 19.9444 23 19.5896 23 19.1462C23 18.743 22.8822 18.3519 22.6465 17.9729C22.4109 17.5939 22.1163 17.223 21.7629 16.8602C21.4094 16.4974 21.058 16.1345 20.7086 15.7717C20.4404 15.4975 20.2312 15.1387 20.0809 14.6952C19.9305 14.2517 19.8188 13.7801 19.7456 13.2802C19.6725 12.7803 19.6197 12.2964 19.5873 11.8288C19.5629 10.2403 19.3943 8.84335 19.0814 7.6379C18.7685 6.43244 18.283 5.42656 17.6248 4.62023C16.9667 3.81391 16.0972 3.21724 15.0164 2.8302C14.8133 2.04 14.4009 1.37075 13.7793 0.822449C13.1577 0.27415 12.3959 0 11.4939 0C10.6001 0 9.84237 0.27415 9.22074 0.822449C8.59911 1.37075 8.18673 2.04 7.98358 2.8302C6.90286 3.21724 6.03137 3.81391 5.36912 4.62023C4.70686 5.42656 4.22135 6.43244 3.91257 7.6379C3.60379 8.84335 3.43721 10.2403 3.41284 11.8288C3.38033 12.2964 3.32751 12.7803 3.25438 13.2802C3.18124 13.7801 3.06952 14.2517 2.91919 14.6952C2.76886 15.1387 2.55962 15.4975 2.29148 15.7717C1.94207 16.1345 1.59063 16.4974 1.23715 16.8602C0.883679 17.223 0.589119 17.5939 0.353472 17.9729C0.117824 18.3519 0 18.743 0 19.1462ZM2.3646 18.7833V18.6381C2.43773 18.5253 2.55962 18.3741 2.73026 18.1846C2.90091 17.9951 3.0939 17.7875 3.30923 17.5617C3.52456 17.3359 3.73786 17.1061 3.94913 16.8723C4.16852 16.6304 4.35948 16.3502 4.522 16.0317C4.68452 15.7132 4.82266 15.3524 4.93642 14.9492C5.05018 14.546 5.13956 14.0985 5.20456 13.6067C5.26958 13.1148 5.31833 12.5746 5.35083 11.986C5.38333 10.2282 5.56616 8.83328 5.89932 7.80118C6.23248 6.76909 6.67736 6.00107 7.23398 5.49711C7.7906 4.99316 8.41831 4.64442 9.11714 4.45091C9.27152 4.41865 9.38934 4.3602 9.4706 4.27553C9.55187 4.19087 9.59656 4.07193 9.60468 3.91873C9.62906 3.2898 9.80986 2.77577 10.1471 2.37664C10.4843 1.97751 10.9332 1.77795 11.4939 1.77795C12.0627 1.77795 12.5158 1.97751 12.853 2.37664C13.1902 2.77577 13.371 3.2898 13.3953 3.91873C13.3953 4.07193 13.438 4.19087 13.5234 4.27553C13.6087 4.3602 13.7245 4.41865 13.8707 4.45091C14.5695 4.64442 15.1972 4.99316 15.7539 5.49711C16.3105 6.00107 16.7574 6.76909 17.0946 7.80118C17.4319 8.83328 17.6167 10.2282 17.6492 11.986C17.6736 12.5746 17.7203 13.1148 17.7893 13.6067C17.8584 14.0985 17.9478 14.546 18.0576 14.9492C18.1672 15.3524 18.3033 15.7132 18.4658 16.0317C18.6283 16.3502 18.8193 16.6304 19.0387 16.8723C19.2581 17.1061 19.4755 17.3359 19.6909 17.5617C19.9062 17.7875 20.0972 17.9951 20.2637 18.1846C20.4302 18.3741 20.5501 18.5253 20.6232 18.6381V18.7833H2.3646ZM8.88555 20.6096H14.1145C14.0657 21.4321 13.8016 22.0832 13.3222 22.563C12.8428 23.0427 12.2334 23.2826 11.4939 23.2826C10.7626 23.2826 10.1552 23.0427 9.67171 22.563C9.18823 22.0832 8.92618 21.4321 8.88555 20.6096Z" fill="#939393"/>
</g>
<defs>
<clipPath id="clip0_90_4231">
<rect width="23" height="25" fill="white"/>
</clipPath>
</defs>
</svg>
