<svg width="27" height="23" viewBox="0 0 27 23" fill="none" xmlns="http://www.w3.org/2000/svg">
<g clip-path="url(#clip0_90_4200)">
<path d="M0 20.9215C0 21.4328 0.137775 21.7957 0.413326 22.0102C0.688877 22.2247 1.009 22.332 1.37371 22.332C1.57632 22.332 1.77487 22.2804 1.96938 22.1773C2.16389 22.0741 2.3746 21.9483 2.60152 21.7999C3.27419 21.338 4.00967 20.9731 4.80795 20.705C5.60625 20.4369 6.43087 20.307 7.28184 20.3153C8.15712 20.3235 9.01417 20.4925 9.85297 20.8224C10.6918 21.1524 11.4516 21.6515 12.1323 22.3195C12.3998 22.567 12.6389 22.7382 12.8496 22.833C13.0603 22.9279 13.2791 22.9753 13.506 22.9753C13.7249 22.9753 13.9417 22.9279 14.1565 22.833C14.3712 22.7382 14.6083 22.567 14.8676 22.3195C15.5484 21.6515 16.3082 21.1524 17.1469 20.8224C17.9858 20.4925 18.8469 20.3235 19.7302 20.3153C20.5731 20.307 21.3936 20.4369 22.1919 20.705C22.9903 20.9731 23.7258 21.338 24.3984 21.7999C24.6253 21.9483 24.836 22.0741 25.0305 22.1773C25.2251 22.2804 25.4277 22.332 25.6384 22.332C25.995 22.332 26.3111 22.2247 26.5866 22.0102C26.8622 21.7957 27 21.4328 27 20.9215V4.13233C27 4.02511 26.9919 3.92613 26.9756 3.83539C26.9594 3.74466 26.9189 3.64569 26.8541 3.53846C26.4975 2.90336 25.9667 2.31774 25.2616 1.7816C24.5565 1.24547 23.7278 0.814505 22.7755 0.488703C21.8232 0.162901 20.7919 0 19.6816 0C18.3525 0 17.1429 0.241259 16.0529 0.723776C14.9628 1.2063 14.1139 1.83109 13.506 2.59817C12.8901 1.83109 12.0371 1.2063 10.9471 0.723776C9.85703 0.241259 8.65149 0 7.33046 0C6.21206 0 5.17671 0.162901 4.22443 0.488703C3.27216 0.814505 2.44551 1.24547 1.74448 1.7816C1.04345 2.31774 0.51058 2.90336 0.145881 3.53846C0.0810446 3.64569 0.0405222 3.74466 0.0243133 3.83539C0.00810442 3.92613 0 4.02511 0 4.13233V20.9215ZM1.95723 19.8698V4.41689C2.2814 3.93025 2.72309 3.50547 3.2823 3.14255C3.84151 2.77963 4.46758 2.49713 5.1605 2.29505C5.85343 2.09297 6.57675 1.99194 7.33046 1.99194C8.48129 1.99194 9.52677 2.21876 10.4669 2.67241C11.407 3.12605 12.0918 3.73229 12.5214 4.49112V20.0801C12.108 19.742 11.6278 19.4409 11.0808 19.1769C10.5337 18.913 9.9401 18.7048 9.29984 18.5522C8.65959 18.3996 8.00313 18.3233 7.33046 18.3233C6.26879 18.3233 5.26789 18.4635 4.32777 18.7439C3.38766 19.0244 2.59747 19.3997 1.95723 19.8698ZM14.4786 20.0801V4.49112C14.9081 3.73229 15.5929 3.12605 16.533 2.67241C17.4732 2.21876 18.5227 1.99194 19.6816 1.99194C20.4272 1.99194 21.1465 2.09297 21.8394 2.29505C22.5323 2.49713 23.1584 2.77963 23.7176 3.14255C24.2769 3.50547 24.7186 3.93025 25.0427 4.41689V19.8698C24.4025 19.3997 23.6123 19.0244 22.6722 18.7439C21.7321 18.4635 20.7352 18.3233 19.6816 18.3233C19.0008 18.3233 18.3423 18.3996 17.7061 18.5522C17.0699 18.7048 16.4763 18.913 15.9253 19.1769C15.3741 19.4409 14.8919 19.742 14.4786 20.0801Z" fill="#F74346"/>
</g>
<defs>
<clipPath id="clip0_90_4200">
<rect width="27" height="23" fill="white"/>
</clipPath>
</defs>
</svg>
