<svg width="23" height="24" viewBox="0 0 23 24" fill="none" xmlns="http://www.w3.org/2000/svg">
<path d="M2.85942 23.6149H17.53C19.4362 23.6149 20.3893 22.9924 20.3893 21.7475C20.3893 20.985 20.1559 20.1719 19.6891 19.3082C19.2223 18.4446 18.5473 17.6295 17.6642 16.8631C16.7811 16.0968 15.7112 15.4723 14.4546 14.9899C13.1981 14.5075 11.78 14.2663 10.2005 14.2663C8.61327 14.2663 7.19134 14.5075 5.93475 14.9899C4.67816 15.4723 3.60831 16.0968 2.7252 16.8631C1.84209 17.6295 1.16711 18.4446 0.700266 19.3082C0.233422 20.1719 0 20.985 0 21.7475C0 22.9924 0.95314 23.6149 2.85942 23.6149ZM2.31087 21.8525C2.15526 21.8525 2.04438 21.8292 1.97825 21.7825C1.91212 21.7358 1.87905 21.6502 1.87905 21.5258C1.87905 21.0512 2.05995 20.5007 2.42175 19.8743C2.78356 19.2479 3.31848 18.643 4.02653 18.0595C4.73457 17.4758 5.60601 16.9915 6.64085 16.6063C7.67569 16.2212 8.86225 16.0286 10.2005 16.0286C11.5388 16.0286 12.7234 16.2212 13.7544 16.6063C14.7853 16.9915 15.6548 17.4758 16.3629 18.0595C17.0709 18.643 17.6059 19.2479 17.9677 19.8743C18.3295 20.5007 18.5104 21.0512 18.5104 21.5258C18.5104 21.6502 18.4773 21.7358 18.4112 21.7825C18.345 21.8292 18.238 21.8525 18.0902 21.8525H2.31087ZM10.2005 12.8191C11.1264 12.8191 11.9707 12.5701 12.7332 12.0722C13.4956 11.5742 14.1045 10.9109 14.5597 10.0822C15.0148 9.25358 15.2424 8.3374 15.2424 7.33369C15.2424 6.33776 15.0168 5.43714 14.5655 4.63183C14.1142 3.82652 13.5074 3.18656 12.7449 2.71194C11.9823 2.23731 11.1342 2 10.2005 2C9.27463 2 8.43042 2.2412 7.66791 2.72361C6.90539 3.20601 6.29655 3.85181 5.84139 4.66101C5.38621 5.4702 5.15863 6.36888 5.15863 7.35703C5.15863 8.35297 5.38621 9.26526 5.84139 10.0939C6.29655 10.9226 6.90539 11.5839 7.66791 12.078C8.43042 12.5721 9.27463 12.8191 10.2005 12.8191ZM10.2005 11.0568C9.63254 11.0568 9.10929 10.8914 8.63077 10.5607C8.15225 10.2301 7.76711 9.78462 7.47533 9.22441C7.18355 8.66419 7.03766 8.04173 7.03766 7.35703C7.03766 6.68011 7.18161 6.07127 7.4695 5.53051C7.75739 4.98975 8.14058 4.55986 8.61909 4.24085C9.09761 3.92184 9.62476 3.76234 10.2005 3.76234C10.7841 3.76234 11.3151 3.91795 11.7936 4.22918C12.2722 4.5404 12.6534 4.9664 12.9374 5.50717C13.2214 6.04793 13.3633 6.65677 13.3633 7.33369C13.3633 8.01839 13.2194 8.64279 12.9316 9.2069C12.6437 9.771 12.2605 10.2203 11.782 10.5549C11.3034 10.8895 10.7763 11.0568 10.2005 11.0568Z" fill="#F74346"/>
</svg>
